<svg id="Calque_1" data-name="Calque 1" xmlns="http://www.w3.org/2000/svg" viewBox="0 0 371.99 360.37"><defs><style>.cls-1{fill:#1b1464;}.cls-2{fill:#faff6d;}</style></defs><path class="cls-1" d="M1095.76,556.09C1093,506,1089.7,445.2,1090,400.66h-1.47c-12.4,41.82-27.36,87.23-45.34,136.61L979.57,712.08H944.42l-58.71-171.6c-17.17-50.92-31.16-97.15-41.26-139.82h-1.26c-1.25,44.91-3.59,104.9-7.07,159l-9.59,154.69H782.32L807.4,354h59.46l61.36,174.43c14.85,44.12,26.94,83.8,36.3,121.41h1.4c9.46-36.5,22.05-76.21,38.13-121.37L1068.34,354h59.51l22.34,360.37h-45.76Z" transform="translate(-778.2 -353.96)"/><path class="cls-2" d="M1136.79,406.64c4.47,20.57,7.75,52.74,7.75,85,0,46.72-7.91,76.57-26.15,98.94-14.13,18.63-35.57,30.11-63.81,30.11-34.83,0-65.49-23.21-78.93-60.94h-1.43c-8.25,34.3-36.51,74.41-90.41,74.41-30.77,0-54.57-12.24-71.77-30.84C788.73,578.54,778.2,538,778.2,478.93a631.64,631.64,0,0,1,4-72.29Zm-320,46.51c-1.91,9.51-2.38,22.38-2.38,39.2,0,48.35,17.69,92.76,70.12,92.76,49,0,69.53-42.43,69.62-93.23V453.15Zm172.35,0V495.8c0,48.71,25.93,77.56,60.88,77.56,41.77,0,58.69-31.65,58.69-78.76,0-21.59-1.59-33.86-3.36-41.45Z" transform="translate(-778.2 -353.96)"/></svg>